<?xml version="1.0" encoding="UTF-8" standalone="no"?>
<!-- Created with Inkscape (http://www.inkscape.org/) -->

<svg
   xmlns:dc="http://purl.org/dc/elements/1.1/"
   xmlns:cc="http://creativecommons.org/ns#"
   xmlns:rdf="http://www.w3.org/1999/02/22-rdf-syntax-ns#"
   xmlns:svg="http://www.w3.org/2000/svg"
   xmlns="http://www.w3.org/2000/svg"
   xmlns:sodipodi="http://sodipodi.sourceforge.net/DTD/sodipodi-0.dtd"
   xmlns:inkscape="http://www.inkscape.org/namespaces/inkscape"
   width="744.09448819"
   height="1052.3622047"
   id="svg2"
   version="1.1"
   inkscape:version="0.48.2 r9819"
   sodipodi:docname="logo_rabbit.svg">
  <defs
     id="defs4" />
  <sodipodi:namedview
     id="base"
     pagecolor="#ffffff"
     bordercolor="#666666"
     borderopacity="1.0"
     inkscape:pageopacity="0.0"
     inkscape:pageshadow="2"
     inkscape:zoom="1.4"
     inkscape:cx="259.98233"
     inkscape:cy="686.67088"
     inkscape:document-units="px"
     inkscape:current-layer="layer1"
     showgrid="false"
     inkscape:window-width="1280"
     inkscape:window-height="758"
     inkscape:window-x="-5"
     inkscape:window-y="20"
     inkscape:window-maximized="1" />
  <metadata
     id="metadata7">
    <rdf:RDF>
      <cc:Work
         rdf:about="">
        <dc:format>image/svg+xml</dc:format>
        <dc:type
           rdf:resource="http://purl.org/dc/dcmitype/StillImage" />
        <dc:title></dc:title>
      </cc:Work>
    </rdf:RDF>
  </metadata>
  <g
     inkscape:label="Layer 1"
     inkscape:groupmode="layer"
     id="layer1">
    <path
       style="fill:none;stroke:#000000;stroke-width:1px;stroke-linecap:butt;stroke-linejoin:miter;stroke-opacity:1"
       d="m 386.90827,297.09695 c 26.87079,8.9237 50.7504,30.9198 60.94888,61.6938 10.49391,9.12314 8.17652,17.16654 3.74999,25.35715 l -3.21428,1.07142 -0.35714,5.53572 c -9.16375,6.17323 -17.94397,12.68737 -31.25,15.17857 -6.97806,-0.39898 -7.93701,3.61604 -7.85715,8.39286 3.89823,31.11408 0.33611,73.93993 -33.92857,93.39285 -15.81314,27.11221 -17.9877,38.62679 -16.24999,58.92858 0.57225,6.68566 3.53002,13.78599 8.57142,18.21428 5.30424,4.65917 16.8415,-4.87236 17.85714,16.42857 -43.29693,-0.25951 -29.15253,2.83446 -48.39286,-6.78571 -7.39462,-9.30679 -12.01126,-19.16918 -17.14285,-28.92857 0,0 2.093,-16.9195 -0.71429,-24.64286 -1.96895,-5.41693 -5.39534,-11.37763 -10.71428,-13.57143 -21.57843,19.32212 -35.87057,21.98988 -47.5,18.57143 -10.22795,13.58377 -13.87916,16.8524 -16.25,32.5 19.16306,0.0224 28.54608,-2.57014 29.28571,18.21429 0,0 -29.28654,1.22855 -43.92857,0.89285 -9.90002,-0.22698 -19.74243,-1.75596 -29.64286,-1.96428 -9.88163,-0.20792 -19.76391,0.34382 -29.64286,0.71428 -3.33308,1.63703 -6.34174,4.49819 -9.82142,3.92857 -12.32617,-2.01778 -25.62098,-2.11756 -37.5,-1.42857 -3.30431,0.19165 -6.07467,-4.54728 -6.07143,-7.85714 0.004,-4.36963 4.15423,-8.3502 8.03571,-10.35714 6.08627,-3.14694 13.51246,-3.44354 20.53572,-0.89286 -6.17203,-8.09524 -8.60544,-15.68229 -8.75,-24.28571 -0.95924,-57.08818 27.92185,-119.59995 72.5,-155.35715 26.20373,-21.01864 65.36457,-36.2227 98.39285,-21.78571 7.85867,0.27914 18.385,2.92952 18.21429,-3.92857 -0.35864,-13.3603 -2.47575,-31.58428 8.57142,-48.03572 0.57054,-9.50921 1.28025,-16.93596 1.42858,-25.17857 -2.20177,-4.58457 -5.42935,-8.14056 -7.14286,-12.67857 -2.12796,-5.63561 -3.32028,-11.66994 -3.75,-17.67857 -0.85609,-11.97024 -0.70006,-24.32539 2.38271,-35.92349 2.65098,-9.97362 8.92662,-13.38804 15.47443,-13.18365 2.50301,-3.86 11.11251,-3.6095 16.05874,-1.50254 6.50844,2.77242 10.10702,10.25176 13.21429,16.60714 9.08998,18.59196 14.39948,38.88642 14.59953,60.34445 z"
       id="path3141"
       inkscape:connector-curvature="0"
       sodipodi:nodetypes="ccccccccascccaccccaacssaacsaccccaascaac" />
    <path
       sodipodi:type="arc"
       style="fill:#00eb00;fill-opacity:1;fill-rule:evenodd;stroke:#000000;stroke-width:2;stroke-linecap:round;stroke-linejoin:round;stroke-miterlimit:4;stroke-opacity:1;stroke-dasharray:none;stroke-dashoffset:1.05999987999999989"
       id="path3164"
       sodipodi:cx="395.75882"
       sodipodi:cy="341.71988"
       sodipodi:rx="6.0293479"
       sodipodi:ry="6.1871843"
       d="m 401.78817,341.71988 a 6.0293479,6.1871843 0 1 1 -12.0587,0 6.0293479,6.1871843 0 1 1 12.0587,0 z" />
  </g>
</svg>
