<?xml version="1.0" encoding="UTF-8" standalone="no"?>
<!-- Created with Inkscape (http://www.inkscape.org/) -->

<svg
   xmlns:dc="http://purl.org/dc/elements/1.1/"
   xmlns:cc="http://creativecommons.org/ns#"
   xmlns:rdf="http://www.w3.org/1999/02/22-rdf-syntax-ns#"
   xmlns:svg="http://www.w3.org/2000/svg"
   xmlns="http://www.w3.org/2000/svg"
   xmlns:sodipodi="http://sodipodi.sourceforge.net/DTD/sodipodi-0.dtd"
   xmlns:inkscape="http://www.inkscape.org/namespaces/inkscape"
   width="744.09448819"
   height="1052.3622047"
   id="svg2"
   version="1.1"
   inkscape:version="0.47 r22583"
   sodipodi:docname="logo_rabbit.svg">
  <defs
     id="defs4">
    <inkscape:perspective
       sodipodi:type="inkscape:persp3d"
       inkscape:vp_x="0 : 526.18109 : 1"
       inkscape:vp_y="0 : 1000 : 0"
       inkscape:vp_z="744.09448 : 526.18109 : 1"
       inkscape:persp3d-origin="372.04724 : 350.78739 : 1"
       id="perspective24" />
    <filter
       inkscape:collect="always"
       id="filter3737">
      <feGaussianBlur
         inkscape:collect="always"
         stdDeviation="10.505586"
         id="feGaussianBlur3739" />
    </filter>
  </defs>
  <sodipodi:namedview
     id="base"
     pagecolor="#ffffff"
     bordercolor="#666666"
     borderopacity="1.0"
     inkscape:pageopacity="0.0"
     inkscape:pageshadow="2"
     inkscape:zoom="0.7"
     inkscape:cx="1817.4414"
     inkscape:cy="578.44553"
     inkscape:document-units="px"
     inkscape:current-layer="layer1"
     showgrid="false"
     inkscape:window-width="1113"
     inkscape:window-height="880"
     inkscape:window-x="25"
     inkscape:window-y="63"
     inkscape:window-maximized="0" />
  <metadata
     id="metadata7">
    <rdf:RDF>
      <cc:Work
         rdf:about="">
        <dc:format>image/svg+xml</dc:format>
        <dc:type
           rdf:resource="http://purl.org/dc/dcmitype/StillImage" />
        <dc:title></dc:title>
      </cc:Work>
    </rdf:RDF>
  </metadata>
  <g
     inkscape:label="Layer 1"
     inkscape:groupmode="layer"
     id="layer1">
    <rect
       style="opacity:0.66542752999999999;color:#000000;fill:none;fill-opacity:1;fill-rule:nonzero;stroke:none;stroke-width:0.39395961000000002;stroke-linecap:butt;stroke-linejoin:miter;stroke-miterlimit:4;stroke-opacity:1;stroke-dasharray:none;stroke-dashoffset:0;marker:none;visibility:visible;display:inline;overflow:visible;enable-background:accumulate"
       id="rect3741"
       width="468.06378"
       height="458.99704"
       x="1441.6315"
       y="283.62906"
       rx="82.766647"
       ry="0"
       inkscape:export-filename="/home/premek/skola/VIA/fellowme/logo/icon.png"
       inkscape:export-xdpi="12.295666"
       inkscape:export-ydpi="12.295666" />
    <rect
       rx="85.714287"
       ry="47.254509"
       inkscape:export-filename="/home/premek/skola/VIA/fellowme/logo/icon.png"
       inkscape:export-ydpi="13.694902"
       inkscape:export-xdpi="13.694902"
       y="611.60492"
       x="1460.64"
       height="103.08044"
       width="423.08038"
       id="rect3691"
       style="color:#000000;fill:#000000;fill-opacity:1;fill-rule:nonzero;stroke:#ffffff;stroke-width:0.37097836000000001;stroke-linecap:butt;stroke-linejoin:miter;stroke-miterlimit:4;stroke-opacity:1;stroke-dasharray:none;stroke-dashoffset:0;marker:none;visibility:visible;display:inline;overflow:visible;filter:url(#filter3737);enable-background:accumulate;opacity:0.66542751" />
    <rect
       style="color:#000000;fill:#000000;fill-opacity:1;fill-rule:nonzero;stroke:#ffffff;stroke-width:0.37097836;stroke-linecap:butt;stroke-linejoin:miter;stroke-miterlimit:4;stroke-opacity:1;stroke-dasharray:none;stroke-dashoffset:0;marker:none;visibility:visible;display:inline;overflow:visible;enable-background:accumulate"
       id="rect3689"
       width="420.22345"
       height="420.22345"
       x="1456.64"
       y="294.74777"
       inkscape:export-xdpi="13.694902"
       inkscape:export-ydpi="13.694902"
       inkscape:export-filename="/home/premek/skola/VIA/fellowme/logo/icon.png"
       ry="85.714287"
       rx="85.714287" />
    <path
       inkscape:export-ydpi="3.0047994"
       inkscape:export-xdpi="3.0047994"
       inkscape:export-filename="/home/premek/skola/VIA/fellowme/logo/favicon.png"
       id="path2873"
       d="m 1188.0625,179.09375 20.5,10.1875 c 69.8163,38.9199 116.75,111.3289 116.75,194.25 0,75.99576 -39.4222,143.16069 -99.75,183.8125 l -8.7187,5.59375 c -36.4395,22.29787 -79.733,35.21875 -126.1876,35.21875 -48.3506,0 -93.28761,-13.97053 -130.62495,-37.96875 L 950.25,563.5 c -57.19671,-40.96797 -94.21875,-106.31935 -94.21875,-179.96875 0,-124.06682 105.03533,-224.65625 234.62495,-224.65625 34.7515,0 67.7365,7.23994 97.4063,20.21875 z"
       style="fill:#ffffff;fill-opacity:1;fill-rule:evenodd;stroke:#000000;stroke-width:0;stroke-linecap:round;stroke-linejoin:round;stroke-miterlimit:4;stroke-opacity:1;stroke-dasharray:none;stroke-dashoffset:1.05999987999999989"
       sodipodi:nodetypes="ccsccsccscc" />
    <g
       id="g3971"
       transform="translate(-0.24510412,21.98546)">
      <g
         transform="translate(127.8803,-31.428571)"
         id="g3942">
        <path
           sodipodi:type="arc"
           style="fill:#600080;fill-opacity:1;fill-rule:evenodd;stroke:#000000;stroke-width:0;stroke-linecap:round;stroke-linejoin:round;stroke-miterlimit:4;stroke-opacity:1;stroke-dasharray:none;stroke-dashoffset:1.05999988"
           id="path3940"
           sodipodi:cx="305.35715"
           sodipodi:cy="424.14789"
           sodipodi:rx="234.64285"
           sodipodi:ry="224.64285"
           d="m 540,424.14789 c 0,124.06682 -105.05318,224.64285 -234.64285,224.64285 -129.58967,0 -234.642856,-100.57603 -234.642856,-224.64285 0,-124.06682 105.053186,-224.64285 234.642856,-224.64285 C 434.94682,199.50504 540,300.08107 540,424.14789 z"
           transform="translate(-50.714281,-8.571429)" />
        <path
           style="fill:#ffffff;fill-opacity:1;stroke:none"
           d="m 386.90827,297.09695 c 26.87079,8.9237 50.7504,30.9198 60.94888,61.6938 10.49391,9.12314 8.17652,17.16654 3.74999,25.35715 l -3.21428,1.07142 -0.35714,5.53572 c -9.16375,6.17323 -17.94397,12.68737 -31.25,15.17857 -6.97806,-0.39898 -7.93701,3.61604 -7.85715,8.39286 3.89823,31.11408 0.33611,73.93993 -33.92857,93.39285 -15.81314,27.11221 -17.9877,38.62679 -16.24999,58.92858 0.57225,6.68566 3.53002,13.78599 8.57142,18.21428 5.30424,4.65917 16.8415,-4.87236 17.85714,16.42857 -43.29693,-0.25951 -29.15253,2.83446 -48.39286,-6.78571 -7.39462,-9.30679 -12.01126,-19.16918 -17.14285,-28.92857 0,0 2.093,-16.9195 -0.71429,-24.64286 -1.96895,-5.41693 -5.39534,-11.37763 -10.71428,-13.57143 -21.57843,19.32212 -35.87057,21.98988 -47.5,18.57143 -10.22795,13.58377 -13.87916,16.8524 -16.25,32.5 19.16306,0.0224 28.54608,-2.57014 29.28571,18.21429 0,0 -29.28654,1.22855 -43.92857,0.89285 -9.90002,-0.22698 -19.74243,-1.75596 -29.64286,-1.96428 -9.88163,-0.20792 -19.76391,0.34382 -29.64286,0.71428 -3.33308,1.63703 -6.34174,4.49819 -9.82142,3.92857 -12.32617,-2.01778 -25.62098,-2.11756 -37.5,-1.42857 -3.30431,0.19165 -6.07467,-4.54728 -6.07143,-7.85714 0.004,-4.36963 4.15423,-8.3502 8.03571,-10.35714 6.08627,-3.14694 13.51246,-3.44354 20.53572,-0.89286 -6.17203,-8.09524 -8.60544,-15.68229 -8.75,-24.28571 -0.95924,-57.08818 27.92185,-119.59995 72.5,-155.35715 26.20373,-21.01864 65.36457,-36.2227 98.39285,-21.78571 7.85867,0.27914 18.385,2.92952 18.21429,-3.92857 -0.35864,-13.3603 -2.47575,-31.58428 8.57142,-48.03572 0.57054,-9.50921 1.28025,-16.93596 1.42858,-25.17857 -2.20177,-4.58457 -5.42935,-8.14056 -7.14286,-12.67857 -2.12796,-5.63561 -3.32028,-11.66994 -3.75,-17.67857 -0.85609,-11.97024 -0.70006,-24.32539 2.38271,-35.92349 2.65098,-9.97362 8.92662,-13.38804 15.47443,-13.18365 2.50301,-3.86 11.11251,-3.6095 16.05874,-1.50254 6.50844,2.77242 10.10702,10.25176 13.21429,16.60714 9.08998,18.59196 14.39948,38.88642 14.59953,60.34445 z"
           id="path3141"
           inkscape:connector-curvature="0"
           sodipodi:nodetypes="ccccccccascccaccccaacssaacsaccccaascaac" />
        <path
           sodipodi:type="arc"
           style="fill:#600080;fill-opacity:1;fill-rule:evenodd;stroke:none"
           id="path3164"
           sodipodi:cx="395.75882"
           sodipodi:cy="341.71988"
           sodipodi:rx="6.0293479"
           sodipodi:ry="6.1871843"
           d="m 401.78817,341.71988 c 0,3.41709 -2.69943,6.18718 -6.02935,6.18718 -3.32992,0 -6.02935,-2.77009 -6.02935,-6.18718 0,-3.41709 2.69943,-6.18719 6.02935,-6.18719 3.32992,0 6.02935,2.7701 6.02935,6.18719 z" />
      </g>
      <flowRoot
         transform="matrix(6.8715596,0,0,6.8452756,-512.68536,-248.47906)"
         style="font-size:24px;font-style:normal;font-weight:normal;line-height:125%;letter-spacing:0px;word-spacing:0px;fill:#640080;fill-opacity:1;stroke:none;font-family:Bitstream Vera Sans"
         id="flowRoot3947"
         xml:space="preserve"><flowRegion
           id="flowRegion3949"><rect
             style="fill:#640080;fill-opacity:1"
             y="34.505039"
             x="92.14286"
             height="105.71429"
             width="544.28571"
             id="rect3951" /></flowRegion><flowPara
           id="flowPara3953">Fellow</flowPara></flowRoot>      <flowRoot
         transform="matrix(2.314396,0,0,3.7353044,-154.80093,-1704.3193)"
         style="font-size:24px;font-style:normal;font-weight:normal;line-height:125%;letter-spacing:0px;word-spacing:0px;fill:#640080;fill-opacity:1;stroke:none;font-family:Bitstream Vera Sans"
         id="flowRoot3955"
         xml:space="preserve"><flowRegion
           id="flowRegion3957"><rect
             style="fill:#640080;fill-opacity:1"
             y="616.64789"
             x="117.85714"
             height="100.71429"
             width="485.71429"
             id="rect3959" /></flowRegion><flowPara
           id="flowPara3961">THE WHITE RABBIT</flowPara></flowRoot>    </g>
    <flowRoot
       xml:space="preserve"
       id="flowRoot3963"
       style="fill:black;stroke:none;stroke-opacity:1;stroke-width:1px;stroke-linejoin:miter;stroke-linecap:butt;fill-opacity:1;font-family:Bitstream Vera Sans;font-style:normal;font-weight:normal;font-size:24;line-height:125%;letter-spacing:0px;word-spacing:0px"><flowRegion
         id="flowRegion3965"><rect
           id="rect3967"
           width="7.8571429"
           height="26.428572"
           x="119.28571"
           y="641.64789" /></flowRegion><flowPara
         id="flowPara3969" /></flowRoot>    <path
       style="fill:#000000;fill-opacity:1;fill-rule:evenodd;stroke:#000000;stroke-width:0;stroke-linecap:round;stroke-linejoin:round;stroke-miterlimit:4;stroke-opacity:1;stroke-dasharray:none;stroke-dashoffset:1.05999987999999989"
       d="M 1090.6562 158.875 C 961.06658 158.875 856.03125 259.46443 856.03125 383.53125 C 856.03125 457.18065 893.05329 522.53203 950.25 563.5 C 950.17565 563.07273 950.12461 562.64757 950.125 562.25 C 950.129 557.74986 954.40883 553.66064 958.40625 551.59375 C 964.6743 548.35281 972.32947 548.06064 979.5625 550.6875 C 973.20612 542.35047 970.71137 534.51664 970.5625 525.65625 C 969.57461 466.86292 999.30896 402.48148 1045.2188 365.65625 C 1072.205 344.00981 1112.5478 328.35054 1146.5625 343.21875 C 1154.656 343.50622 1165.4884 346.25043 1165.3125 339.1875 C 1164.9432 325.42814 1162.7479 306.66158 1174.125 289.71875 C 1174.7126 279.92551 1175.4409 272.27005 1175.5938 263.78125 C 1173.3261 259.05975 1170.0148 255.3923 1168.25 250.71875 C 1166.0585 244.91481 1164.8177 238.71935 1164.375 232.53125 C 1163.4934 220.20348 1163.6688 207.47577 1166.8438 195.53125 C 1169.5738 185.25973 1176.0379 181.727 1182.7812 181.9375 C 1183.7829 180.39281 1185.7513 179.4935 1188.0625 179.09375 C 1158.3927 166.11494 1125.4077 158.875 1090.6562 158.875 z M 1208.5625 189.28125 C 1210.2204 191.93919 1211.6249 194.81527 1212.9375 197.5 C 1222.299 216.64727 1227.7627 237.5573 1227.9688 259.65625 C 1255.6419 268.8465 1280.2156 291.49431 1290.7188 323.1875 C 1301.526 332.58313 1299.1524 340.87725 1294.5938 349.3125 L 1291.2812 350.40625 L 1290.9062 356.09375 C 1281.4689 362.45136 1272.4221 369.15314 1258.7188 371.71875 C 1251.5322 371.30786 1250.5429 375.4555 1250.625 380.375 C 1254.6397 412.41841 1250.9757 456.52855 1215.6875 476.5625 C 1199.402 504.48451 1197.1792 516.34182 1198.9688 537.25 C 1199.5581 544.13535 1202.5892 551.43944 1207.7812 556 C 1212.706 560.32582 1222.8439 552.79644 1225.5625 567.34375 C 1285.8903 526.69194 1325.3125 459.52701 1325.3125 383.53125 C 1325.3125 300.61015 1278.3788 228.20115 1208.5625 189.28125 z M 1231.7812 303.46875 C 1228.4514 303.46875 1225.75 306.23916 1225.75 309.65625 C 1225.75 313.07334 1228.4514 315.84375 1231.7812 315.84375 C 1235.1113 315.84375 1237.8125 313.07334 1237.8125 309.65625 C 1237.8125 306.23916 1235.1113 303.46875 1231.7812 303.46875 z M 1146.9062 496.78125 C 1124.6834 516.6805 1109.9767 519.42681 1098 515.90625 C 1087.4666 529.89575 1083.6917 533.26002 1081.25 549.375 C 1100.9855 549.398 1110.6757 546.75101 1111.4375 568.15625 C 1111.4375 568.15625 1081.2668 569.40821 1066.1875 569.0625 C 1055.9918 568.82873 1045.8526 567.24579 1035.6562 567.03125 C 1025.4796 566.81712 1015.299 567.39973 1005.125 567.78125 C 1001.6923 569.46718 998.58357 572.39914 995 571.8125 C 983.54079 569.93665 971.30572 569.6992 960.03125 570.1875 C 997.36859 594.18572 1042.3056 608.15625 1090.6562 608.15625 C 1137.1108 608.15625 1180.4043 595.23537 1216.8438 572.9375 C 1183.791 573.09566 1194.6016 575.06649 1176.3438 565.9375 C 1168.7283 556.35274 1163.9724 546.20714 1158.6875 536.15625 C 1158.6875 536.15625 1160.8286 518.73529 1157.9375 510.78125 C 1155.9098 505.20252 1152.3841 499.04058 1146.9062 496.78125 z "
       id="path2834"
       inkscape:export-filename="/home/premek/skola/VIA/fellowme/logo/favicon.png"
       inkscape:export-xdpi="3.0047994"
       inkscape:export-ydpi="3.0047994" />
    <path
       style="fill:#ffffff;fill-opacity:1;stroke:none"
       d="m 1739.6134,312.24222 c -3.0835,0.1565 -5.8423,1.07 -7.0937,3 -6.5479,-0.20439 -12.849,3.21388 -15.5,13.1875 -3.0829,11.5981 -3.2311,23.93601 -2.375,35.90625 0.4296,6.00863 1.622,12.05189 3.75,17.6875 1.7135,4.53801 4.9545,8.10293 7.1562,12.6875 -0.1483,8.24261 -0.867,15.67829 -1.4375,25.1875 -11.0472,16.45144 -8.9211,34.67095 -8.5625,48.03125 0.1707,6.85809 -10.3601,4.18539 -18.2188,3.90625 -33.0282,-14.43699 -72.2025,0.79386 -98.4062,21.8125 -44.5782,35.7572 -73.4592,98.25557 -72.5,155.34375 0.1446,8.60342 2.578,16.18601 8.75,24.28125 -7.0233,-2.55068 -14.4451,-2.24069 -20.5312,0.90625 -3.8815,2.00694 -8.0313,5.97412 -8.0313,10.34375 0,3.30986 2.7582,8.06665 6.0625,7.875 11.879,-0.68899 25.1738,-0.61153 37.5,1.40625 3.4797,0.56962 6.5106,-2.26922 9.8438,-3.90625 9.879,-0.37046 19.7433,-0.92667 29.625,-0.71875 9.9003,0.20832 19.7562,1.74177 29.6562,1.96875 14.6421,0.3357 43.9062,-0.90625 43.9062,-0.90625 -0.7395,-20.78443 -10.1181,-18.19635 -29.2812,-18.21875 2.3708,-15.6476 6.022,-18.91623 16.25,-32.5 11.6294,3.41845 25.9216,0.75962 47.5,-18.5625 5.3189,2.1938 8.7497,8.14557 10.7188,13.5625 2.8073,7.72336 0.7187,24.65625 0.7187,24.65625 5.1316,9.75939 9.7616,19.59946 17.1563,28.90625 19.2403,9.62017 5.0779,6.55299 48.375,6.8125 -1.0157,-21.30093 -12.5395,-11.77833 -17.8438,-16.4375 -5.0414,-4.42829 -8.0214,-11.53309 -8.5938,-18.21875 -1.7376,-20.30179 0.4369,-31.82529 16.25,-58.9375 34.2647,-19.45292 37.8358,-62.26092 33.9376,-93.375 -0.08,-4.77682 0.8969,-8.80523 7.875,-8.40625 13.3061,-2.4912 22.0862,-9.01427 31.25,-15.1875 l 0.3437,-5.53125 3.2187,-1.0625 c 4.4267,-8.19061 6.7439,-16.22061 -3.75,-25.34375 -10.1985,-30.774 -34.0979,-52.79505 -60.9687,-61.71875 -0.2001,-21.45803 -5.5038,-41.75179 -14.5937,-60.34375 -3.1072,-6.35538 -6.7104,-13.82133 -13.2188,-16.59375 -2.4732,-1.05348 -5.854,-1.6565 -8.9375,-1.5 z m 45.625,116.875 c 3.3299,0 6.0313,2.77041 6.0313,6.1875 0,3.41709 -2.7014,6.1875 -6.0313,6.1875 -3.3299,0 -6.0313,-2.77041 -6.0313,-6.1875 0,-3.41709 2.7014,-6.1875 6.0313,-6.1875 z"
       id="path3653" />
  </g>
</svg>
